{"title":"Snatch 2000 DVDRip x264 xLeAr","uid":15405366,"size":881706917,"categoryP":"video","categoryS":"movies_dvdr","magnet":"?xt=urn:btih:be23a3d949ace6933eb6e1d3dca12e6a4b8a3e9c&amp;dn=Snatch+2000+DVDRip+x264+xLeAr&amp;tr=udp%3A%2F%2Ftracker.leechers-paradise.org%3A6969&amp;tr=udp%3A%2F%2Fzer0day.ch%3A1337&amp;tr=udp%3A%2F%2Fopen.demonii.com%3A1337&amp;tr=udp%3A%2F%2Ftracker.coppersurfer.tk%3A6969&amp;tr=udp%3A%2F%2Fexodus.desync.com%3A6969","seeders":6,"leechers":4,"uploader":"xLeAr","files":3,"time":1469497738,"description":"Unscrupulous boxing promoters, violent bookmakers, a Russian gangster, incompetent amateur robbers, and supposedly Jewish jewelers fight to track down a priceless stolen diamond.\r\n\r\n\r\n[b]Video[/b] \r\nID : 1 \r\nFormat : AVC \r\nFormat/Info : Advanced Video Codec \r\nFormat profile :    \r\nFormat settings, CABAC : Yes \r\nFormat settings, ReFrames : 4 frames \r\nCodec ID : avc1 \r\nCodec ID/Info : Advanced Video Coding \r\nDuration : 1 h 38 min \r\nBit rate : 975 kb/s \r\nWidth : 702 pixels \r\nHeight : 552 pixels \r\nDisplay aspect ratio : 16:9 \r\nOriginal display aspect ratio : 16:9 \r\nFrame rate mode : Constant \r\nFrame rate : 25.000 FPS \r\nColor space : YUV \r\nChroma subsampling : 4:2:0 \r\nBit depth : 8 bits \r\nScan type : Progressive \r\nBits/(Pixel*Frame) : 0.101 \r\nStream size : 687 MiB (82%) \r\nWriting library : x264 core 142 r2479 dd79a61 \r\nEncoding settings : cabac=1 / ref=2 / deblock=1:0:0 / analyse=0x1:0x111 / me=hex / subme=4 / psy=1 / psy_rd=1.00:0.00 / mixed_ref=0 / me_range=16 / chroma_me=1 / trellis=1 / 8x8dct=0 / cqm=0 / deadzone=21,11 / fast_pskip=1 / chroma_qp_offset=0 / threads=12 / lookahead_threads=3 / sliced_threads=0 / nr=0 / decimate=1 / interlaced=0 / bluray_compat=0 / constrained_intra=0 / bframes=3 / b_pyramid=2 / b_adapt=1 / b_bias=0 / direct=1 / weightb=1 / open_gop=0 / weightp=1 / keyint=250 / keyint_min=25 / scenecut=40 / intra_refresh=0 / rc_lookahead=20 / rc=2pass / mbtree=1 / bitrate=975 / ratetol=1.0 / qcomp=0.60 / qpmin=0 / qpmax=69 / qpstep=4 / cplxblur=20.0 / qblur=0.5 / vbv_maxrate=20000 / vbv_bufsize=25000 / nal_hrd=none / filler=0 / ip_ratio=1.40 / aq=1:1.00 \r\nEncoded date : UTC 2016-07-21 08:08:14 \r\nTagged date : UTC 2016-07-21 08:08:14 \r\nColor range : Limited \r\nColor primaries : BT.601 PAL \r\nTransfer characteristics : BT.709 \r\nMatrix coefficients : BT.601 \r\nMenus : 4 \r\n\r\n[b]\r\nAudio #1[/b] \r\nID : 2 \r\nFormat : AAC \r\nFormat/Info : Advanced Audio Codec \r\nFormat profile : LC \r\nCodec ID : 40 \r\nDuration : 1 h 38 min \r\nBit rate mode : Variable \r\nBit rate : 112 kb/s \r\nChannel(s) : 2 channels \r\nChannel positions : Front: L R \r\nSampling rate : 48.0 kHz \r\nFrame rate : 46.875 FPS (1024 spf) \r\nCompression mode : Lossy \r\nStream size : 79.2 MiB (9%) \r\nTitle : Stereo / Stereo \r\nLanguage : English \r\nDefault : Yes \r\nAlternate group : 1 \r\nEncoded date : UTC 2016-07-21 08:08:14 \r\nTagged date : UTC 2016-07-21 08:08:14 \r\nMenus : 4 \r\n\r\n[b]\r\nAudio #2[/b] \r\nID : 3 \r\nFormat : AAC \r\nFormat/Info : Advanced Audio Codec \r\nFormat profile : LC \r\nCodec ID : 40 \r\nDuration : 1 h 38 min \r\nBit rate mode : Variable \r\nBit rate : 96.0 kb/s \r\nChannel(s) : 2 channels \r\nChannel positions : Front: L R \r\nSampling rate : 48.0 kHz \r\nFrame rate : 46.875 FPS (1024 spf) \r\nCompression mode : Lossy \r\nStream size : 67.9 MiB (8%) \r\nTitle : Stereo / Stereo \r\nLanguage : English \r\nDefault : No \r\nAlternate group : 1 \r\nEncoded date : UTC 2016-07-21 08:08:14 \r\nTagged date : UTC 2016-07-21 08:08:14 \r\nMenus : 4","torrent":{"xt":"urn:btih:be23a3d949ace6933eb6e1d3dca12e6a4b8a3e9c","amp;dn":"Snatch+2000+DVDRip+x264+xLeAr","amp;tr":["udp%3A%2F%2Ftracker.leechers-paradise.org%3A6969","udp%3A%2F%2Fzer0day.ch%3A1337","udp%3A%2F%2Fopen.demonii.com%3A1337","udp%3A%2F%2Ftracker.coppersurfer.tk%3A6969","udp%3A%2F%2Fexodus.desync.com%3A6969"],"infoHash":"be23a3d949ace6933eb6e1d3dca12e6a4b8a3e9c","infoHashBuffer":{"type":"Buffer","data":[190,35,163,217,73,172,230,147,62,182,225,211,220,161,46,106,75,138,62,156]},"announce":[],"urlList":[]}}